/* XPM */
static char *_8a61b047b5c4c81dd6349604be6e458[] = {
/* columns rows colors chars-per-pixel */
"64 64 112 2 ",
"   c #493556",
".  c #493557",
"X  c #493656",
"o  c #493657",
"O  c #493757",
"+  c #4A3657",
"@  c #4A3757",
"#  c #493658",
"$  c #4A3658",
"%  c #4A3758",
"&  c #4B3758",
"*  c #4A3859",
"=  c #4B3A5A",
"-  c #4B3A5B",
";  c #4D3859",
":  c #4E395A",
">  c #4F395A",
",  c #4F395B",
"<  c #4B3B5C",
"1  c #503A5B",
"2  c #523B5C",
"3  c #533B5D",
"4  c #543C5D",
"5  c #553C5E",
"6  c #563D5F",
"7  c #593F60",
"8  c #4E4262",
"9  c #5D4163",
"0  c #5E4164",
"q  c #554962",
"w  c #5E5569",
"e  c #585A79",
"r  c #604365",
"t  c #624365",
"y  c #624366",
"u  c #644467",
"i  c #664568",
"p  c #674668",
"a  c #684669",
"s  c #69476A",
"d  c #6A486A",
"f  c #6B486B",
"g  c #6F4A6D",
"h  c #704B6E",
"j  c #724C6F",
"k  c #734C6F",
"l  c #734D70",
"z  c #784F73",
"x  c #7C5175",
"c  c #7F5377",
"v  c #656170",
"b  c #6A6774",
"n  c #72747C",
"m  c #825579",
"M  c #87577B",
"N  c #88587C",
"B  c #8B597E",
"V  c #8D5A7F",
"C  c #5E6B89",
"Z  c #5F6B89",
"A  c #617290",
"S  c #637794",
"D  c #8F5C80",
"F  c #905C81",
"G  c #935E82",
"H  c #955F84",
"J  c #986085",
"K  c #996186",
"L  c #9A6186",
"P  c #9B6287",
"I  c #9F6489",
"U  c #A0648A",
"Y  c #A1658B",
"T  c #A2658B",
"R  c #A3668C",
"E  c #A5678D",
"W  c #AD6B91",
"Q  c #AD6B92",
"!  c #B06D94",
"~  c #B16D94",
"^  c #B46F96",
"/  c #BB739A",
"(  c #BE759C",
")  c #C1769E",
"_  c #C3779F",
"`  c #C4779F",
"'  c #C679A0",
"]  c #C779A1",
"[  c #C87AA2",
"{  c #C97AA2",
"}  c #CB7CA3",
"|  c #CC7CA4",
" . c #CD7CA4",
".. c #CD7DA5",
"X. c #CE7DA5",
"o. c #7D8485",
"O. c #7E8586",
"+. c #68839F",
"@. c #6D8EAA",
"#. c #77A8C2",
"$. c #78AAC4",
"%. c #79ACC6",
"&. c #828B8A",
"*. c #90A096",
"=. c #95A79A",
"-. c #99AE9E",
";. c #A9C6AD",
":. c #B6D9B8",
">. c #BCE2BD",
",. c #BEE4BF",
"<. c #BEE5BF",
"1. c None",
/* pixels */
"1.1.1.1.# # + O O 1.1.1.1.1.1.1.1.1.1.1.1.1.1.1.1.1.1.1.1.1.1.1.1.1.1.1.1.1.1.1.1.1.1.1.1.1.1.1.1.1.1.1.1.1.1.+ O O + + 1.1.1.1.",
"1.1.+ + O O + O + + 1.1.1.1.1.1.1.1.1.1.1.1.1.1.1.1.1.1.1.1.1.1.1.1.1.1.1.1.1.1.1.1.1.1.1.1.1.1.1.1.1.1.1.1.+ + O O # # + O 1.1.",
"1.O + + n -.;.=.v # # 1.1.1.1.1.1.1.1.1.1.1.1.1.1.1.1.1.1.1.1.+ + 1.1.1.1.1.1.1.1.1.1.1.1.1.1.1.1.1.1.1.1.# O v =.;.-.n + + O 1.",
"1.+ O =.<.<.<.<.>.o.+ + 1.1.1.1.1.1.1.1.1.1.1.1.1.1.1.1.1.+ + # + + + 1.1.1.1.1.1.1.1.1.1.1.1.1.1.1.1.1.O O o.,.>.,.,.,.=.+ + 1.",
"+ + n ,.,.,.<.<.<.>.w O 1.1.1.1.1.1.1.1.1.1.1.1.1.1.1.1.+ + 8 A A 8 # # 1.1.1.1.1.1.1.1.1.1.1.1.1.1.1.1.+ w >.<.<.<.<.,.<.n O O ",
"O + -.,.,.,.<.<.<.<.&.+ + + O O O O O O O O O + O O O + O + @.%.%.@.# O + + O O O O O O O O O + O O O O + &.<.,.<.<.<.,.<.-.O O ",
"O O ;.,.<.<.<.<.<.<.*.# + + + + + + + + + + + + + + + + O O %.%.%.%.O O + + + + + + + + + + + + + + + + + *.,.,.<.<.,.,.>.;.O . ",
". O =.>.<.<.<.<.<.<.o.O + 1.1.1.1.1.1.1.1.1.1.1.1.1.1.1.O O +.%.%.+.+ + 1.1.1.1.1.1.1.1.1.1.1.1.1.1.1.+ O o.,.,.<.<.,.,.,.=.O . ",
"O O v <.<.<.,.,.<.:.q + 1.1.1.1.1.1.1.1.1.1.1.1.1.1.1.1.+ # O e e # + O 1.1.1.1.1.1.1.1.1.1.1.1.1.1.1.1.O q :.<.<.<.,.,.,.v O # ",
"1.O + o.>.<.,.,.:.b + + 1.1.1.1.1.1.1.1.1.1.1.1.1.1.1.O + # O + + O O O + 1.1.1.1.1.1.1.1.1.1.1.1.1.1.1.O O b :.<.<.,.>.o.O + 1.",
"1.1.# + w &.*.o.q O O 1.1.1.1.1.1.1.1.1.1.1.1.1.1.1.+ O O 1.1.+ + 1.1.+ O O 1.1.1.1.1.1.1.1.1.1.1.1.1.1.1.+ + q O.*.&.w + + 1.1.",
"1.1.1.O O O O + O O 1.1.1.1.1.1.1.1.1.1.1.1.1.1.1.+ + + 1.1.1.+ + 1.1.1.+ + + 1.1.1.1.1.1.1.1.1.1.1.1.1.1.1.+ + O O O # + 1.1.1.",
"1.1.1.1.1.+ + + 1.1.1.1.1.1.1.1.1.1.1.1.1.1.1.1.+ O O 1.1.1.1.+ + 1.1.1.1.+ O O 1.1.1.1.1.1.1.1.1.1.1.1.1.1.1.1.O + + 1.1.1.1.1.",
"1.1.1.1.1.O + 1.1.1.1.1.1.1.1.1.1.1.1.1.1.1.1.O + + 1.1.1.1.1.+ + 1.1.1.1.1.+ + + 1.1.1.1.1.1.1.1.1.1.1.1.1.1.1.1.+ O 1.1.1.1.1.",
"1.1.1.1.1.O + 1.1.1.1.1.1.1.1.1.1.1.1.1.1.1.+ O + 1.1.1.1.1.1.+ + 1.1.1.1.1.1.+ + O 1.1.1.1.1.1.1.1.1.1.1.1.1.1.1.+ O 1.1.1.1.1.",
"1.1.1.1.1.+ + 1.1.1.1.1.1.1.1.1.1.1.1.1.1.+ + + 1.1.1.1.1.1.1.+ + 1.1.1.1.1.1.1.+ O + 1.1.1.1.1.1.1.1.1.1.1.1.1.1.+ O 1.1.1.1.1.",
"1.1.1.1.1.O + 1.1.1.1.1.1.1.1.1.1.1.1.1.+ O O 1.1.1.1.1.1.1.1.+ + 1.1.1.1.1.1.1.1.+ O + 1.1.1.1.1.1.1.1.1.1.1.1.1.+ O 1.1.1.1.1.",
"1.1.1.1.1.+ + 1.1.1.1.1.1.1.1.1.1.1.1.O + + 1.1.1.1.1.1.1.1.1.+ + 1.1.1.1.1.1.1.1.1.O + + 1.1.1.1.1.1.1.1.1.1.1.1.+ O 1.1.1.1.1.",
"1.1.1.1.1.O + 1.1.1.1.1.1.1.1.1.1.1.+ O + 1.1.1.1.1.1.1.1.1.1.+ + 1.1.1.1.1.1.1.1.1.1.+ + + 1.1.1.1.1.1.1.1.1.1.1.+ + 1.1.1.1.1.",
"1.1.1.1.1.O + 1.1.1.1.1.1.1.1.1.1.+ + + 1.1.1.1.1.1.1.1.1.1.O + + + 1.1.1.1.1.1.1.1.1.1.O O + 1.1.1.1.1.1.1.1.1.1.+ O 1.1.1.1.1.",
"1.1.1.1.1.O + 1.1.1.1.1.1.1.1.1.+ + + 1.1.1.1.1.1.1.1.1.# # # O + O O O 1.1.1.1.1.1.1.1.1.+ + O 1.1.1.1.1.1.1.1.1.+ O 1.1.1.1.1.",
"1.1.1.1.1.O + 1.1.1.1.1.1.1.1.O O + 1.1.1.1.1.1.1.1.1.+ + # i D H z # O + 1.1.1.1.1.1.1.1.1.+ O + 1.1.1.1.1.1.1.1.+ O 1.1.1.1.1.",
"1.1.1.1.1.O + 1.1.1.1.1.1.1.+ O O 1.1.1.1.1.1.1.1.1.1.+ O E X.X.X. .! ; + 1.1.1.1.1.1.1.1.1.1.+ + O 1.1.1.1.1.1.1.+ O 1.1.1.1.1.",
"1.1.1.1.1.O + 1.1.1.1.1.1.+ + + 1.1.1.1.1.1.1.1.1.1.+ # V  . . .X. . .U + + 1.1.1.1.1.1.1.1.1.1.+ O + 1.1.1.1.1.1.+ O 1.1.1.1.1.",
"1.1.1.1.1.O + 1.1.1.1.1.+ O O 1.1.1.1.1.1.1.1.O + # + + O x {  .X.X.X. .5 # + + O 1.1.1.1.1.1.1.1.+ O + 1.1.1.1.1.+ O 1.1.1.1.1.",
"1.1.1.1.1.O + 1.1.1.1.+ + + 1.1.1.1.1.1.1.1.+ + 9 z h 0 # # d  .X.X.X.X.R h z 9 + # 1.1.1.1.1.1.1.1.O + + 1.1.1.1.+ O 1.1.1.1.1.",
"1.1.1.1.1.O # 1.1.1.+ + + 1.1.1.1.1.1.1.1.# O F X.X. . .I 1 O K X.X.X.X.X.X. . .F O # 1.1.1.1.1.1.1.1.+ + + 1.1.1.+ O 1.1.1.1.1.",
"1.1.1.1.1.+ + 1.1.O O + 1.1.1.1.1.1.1.1.# # f  .X.X. . . .z # i X.X.X.X.X.X. . . .d + # 1.1.1.1.1.1.1.1.O O + 1.1.+ + 1.1.1.1.1.",
"1.1.1.1.+ + # # + + + 1.1.1.1.1.1.1.1.+ + O F  .X.X. .X.X.^ u d X.X. . .X.| ]  . .F O # + 1.1.1.1.1.1.1.1.+ + O # # O O 1.1.1.1.",
"1.1.1.O O + O O O + 1.1.1.1.1.1.1.1.+ # + r ( { X.X. . . . .X.X.X. . .K 0 O K  . .) u O + + 1.1.1.1.1.1.1.1.+ O # O O + + 1.1.1.",
"1.1.1.+ 8 @.#.S < O 1.1.1.1.1.1.1.+ O 9 !  . .N 2 l /  .X.X.X.X.X.[ i + # O K  .X.X. .! 9 + O 1.1.1.1.1.1.1.+ < S #.@.8 + 1.1.1.",
"1.1.+ + A %.%.%.C O + + + + + + + + O J  . . .N O O ; Q X.X.X.X. .h # 1 c !  .X.X. . . .J O + + + + + + O + + C %.%.%.A + + 1.1.",
"1.1.O + A %.%.%.C + + + + + + + O O + K X.X. .] R u # 1 ] X. . .R O O U  .X.X.X. . .X. .K O + + + + + + + + + C %.%.%.A + + 1.1.",
"1.1.1.+ 8 @.#.S < + 1.1.1.1.1.1.1.O O 9 ^  . . . .) 3 O G  . . .l O h  . .X.X.X. . .X.^ 9 # + 1.1.1.1.1.1.1.O < S #.@.8 O 1.1.1.",
"1.1.1.+ O # O O + O 1.1.1.1.1.1.1.1.+ + O 7 7 7 7 7 ; # 1 9 7 7 O # 5 7 i ] X.^ r 7 5 + # # 1.1.1.1.1.1.1.1.+ + O O # + + 1.1.1.",
"1.1.1.1.+ # + + O O + 1.1.1.1.1.1.1.1.# # # + + + # O O O O O + # # + + O R X.N + + # # O 1.1.1.1.1.1.1.1.O O + O O # # 1.1.1.1.",
"1.1.1.1.1.+ + 1.1.+ + + 1.1.1.1.1.1.1.1.1.1.1.1.1.1.1.1.1.1.1.+ + 1.1.+ # U  .N O O 1.1.1.1.1.1.1.1.1.1.+ + + 1.1.+ + 1.1.1.1.1.",
"1.1.1.1.1.O + 1.1.1.O O + 1.1.1.1.1.1.1.1.1.1.1.1.1.1.1.1.1.1.+ + 1.1.+ + I  .N O + 1.1.1.1.1.1.1.1.1.O O + 1.1.1.+ O 1.1.1.1.1.",
"1.1.1.1.1.O + 1.1.1.1.+ O O 1.1.1.1.1.1.1.1.1.1.1.1.1.1.1.1.1.+ + 1.1.+ # U  .m + + 1.1.1.1.1.1.1.1.+ O O 1.1.1.1.+ O 1.1.1.1.1.",
"1.1.1.1.1.+ + 1.1.1.1.1.+ + + 1.1.1.1.1.1.1.1.1.1.1.1.1.1.1.1.+ + 1.1.+ + N h O + + 1.1.1.1.1.1.1.+ + + 1.1.1.1.1.+ + 1.1.1.1.1.",
"1.1.1.1.1.O + 1.1.1.1.1.1.+ O O 1.1.1.1.1.1.1.1.1.1.1.1.1.1.1.+ + 1.1.+ + + O + + 1.1.1.1.1.1.1.+ + + 1.1.1.1.1.1.+ O 1.1.1.1.1.",
"1.1.1.1.1.O + 1.1.1.1.1.1.1.+ + + 1.1.1.1.1.1.1.1.1.1.1.1.1.1.+ + 1.1.# + + O 1.1.1.1.1.1.1.1.+ O + 1.1.1.1.1.1.1.+ O 1.1.1.1.1.",
"1.1.1.1.1.O + 1.1.1.1.1.1.1.1.+ + O 1.1.1.1.1.1.1.1.1.1.1.1.1.+ + 1.1.1.O 1.1.1.1.1.1.1.1.1.+ + O 1.1.1.1.1.1.1.1.+ O 1.1.1.1.1.",
"1.1.1.1.1.O + 1.1.1.1.1.1.1.1.1.+ O + 1.1.1.1.1.1.1.1.1.1.1.1.+ + 1.1.1.1.1.1.1.1.1.1.1.1.O O + 1.1.1.1.1.1.1.1.1.+ O 1.1.1.1.1.",
"1.1.1.1.1.O + 1.1.1.1.1.1.1.1.1.1.+ O + 1.1.1.1.1.1.1.1.1.1.1.+ + 1.1.1.1.1.1.1.1.1.1.1.+ + + 1.1.1.1.1.1.1.1.1.1.+ O 1.1.1.1.1.",
"1.1.1.1.1.O + 1.1.1.1.1.1.1.1.1.1.1.O + + 1.1.1.1.1.1.1.1.1.1.+ + 1.1.1.1.1.1.1.1.1.1.O O + 1.1.1.1.1.1.1.1.1.1.1.+ O 1.1.1.1.1.",
"1.1.1.1.1.O + 1.1.1.1.1.1.1.1.1.1.1.1.+ O + 1.1.1.1.1.1.1.1.1.+ + 1.1.1.1.1.1.1.1.1.+ O O 1.1.1.1.1.1.1.1.1.1.1.1.+ O 1.1.1.1.1.",
"1.1.1.1.1.O + 1.1.1.1.1.1.1.1.1.1.1.1.1.O + + 1.1.1.1.1.1.1.1.+ + 1.1.1.1.1.1.1.1.+ + + 1.1.1.1.1.1.1.1.1.1.1.1.1.+ O 1.1.1.1.1.",
"1.1.1.1.1.O + 1.1.1.1.1.1.1.1.1.1.1.1.1.1.+ O O 1.1.1.1.1.1.1.+ + 1.1.1.1.1.1.1.+ + + 1.1.1.1.1.1.1.1.1.1.1.1.1.1.+ + 1.1.1.1.1.",
"1.1.1.1.1.O + 1.1.1.1.1.1.1.1.1.1.1.1.1.1.1.+ + + 1.1.1.1.1.1.+ + 1.1.1.1.1.1.O O + 1.1.1.1.1.1.1.1.1.1.1.1.1.1.1.+ + 1.1.1.1.1.",
"1.1.1.1.1.+ + 1.1.1.1.1.1.1.1.1.1.1.1.1.1.1.1.+ O + 1.1.1.1.1.+ + 1.1.1.1.1.+ O O 1.1.1.1.1.1.1.1.1.1.1.1.1.1.1.1.+ O 1.1.1.1.1.",
"1.1.1.1.1.O + O 1.1.1.1.1.1.1.1.1.1.1.1.1.1.1.1.O + + 1.1.1.1.+ + 1.1.1.1.+ + + 1.1.1.1.1.1.1.1.1.1.1.1.1.1.1.1.+ + O 1.1.1.1.1.",
"1.1.1.+ + + # + O + 1.1.1.1.1.1.1.1.1.1.1.1.1.1.1.+ O O 1.1.1.+ + 1.1.1.+ O O 1.1.1.1.1.1.1.1.1.1.1.1.1.1.1.O O O O O O + 1.1.1.",
"1.1.# # w &.*.o.q + + 1.1.1.1.1.1.1.1.1.1.1.1.1.1.1.+ + + 1.1.+ + 1.1.+ + + 1.1.1.1.1.1.1.1.1.1.1.1.1.1.1.+ O q o.*.&.w + + 1.1.",
"1.+ O o.>.<.<.<.:.b + + 1.1.1.1.1.1.1.1.1.1.1.1.1.1.1.+ + O O # + # + + + 1.1.1.1.1.1.1.1.1.1.1.1.1.1.1.+ + b :.,.,.<.>.o.+ + 1.",
"+ + v >.<.<.<.<.<.:.q + 1.1.1.1.1.1.1.1.1.1.1.1.1.1.1.1.+ O # e e # O + 1.1.1.1.1.1.1.1.1.1.1.1.1.1.1.1.+ q :.<.,.,.<.<.<.v + + ",
"# O =.<.<.<.<.<.<.<.o.+ O 1.1.1.1.1.1.1.1.1.1.1.1.1.1.1.# O +.%.%.+.# # 1.1.1.1.1.1.1.1.1.1.1.1.1.1.1.O # o.<.<.,.,.<.<.<.=.O # ",
"# O ;.<.<.<.<.,.<.<.*.O O O + + + + + + + + + + + + + + # O %.%.%.%.O . + + + + + + + + + + + + + + + + + *.<.<.,.,.<.<.<.;.+ O ",
"+ + -.<.<.<.,.,.<.<.&.O + + + O O O O O O O O O + O + + + O @.%.%.@.O O + + + O O O O O O O O O + + + + O &.<.<.<.<.<.<.>.-.O O ",
"O O n <.<.<.,.,.<.>.w O 1.1.1.1.1.1.1.1.1.1.1.1.1.1.1.1.O O 8 A A 8 O O 1.1.1.1.1.1.1.1.1.1.1.1.1.1.1.1.O w >.<.<.<.<.<.,.n O O ",
"1.+ + =.>.,.,.,.<.o.+ + 1.1.1.1.1.1.1.1.1.1.1.1.1.1.1.1.1.+ + + + + + 1.1.1.1.1.1.1.1.1.1.1.1.1.1.1.1.1.+ + o.<.<.<.<.<.=.+ + 1.",
"1.+ O + n -.;.=.v O + 1.1.1.1.1.1.1.1.1.1.1.1.1.1.1.1.1.1.1.1.+ + 1.1.1.1.1.1.1.1.1.1.1.1.1.1.1.1.1.1.1.1.+ + v =.;.-.n # # + 1.",
"1.1.O + . O O O O O 1.1.1.1.1.1.1.1.1.1.1.1.1.1.1.1.1.1.1.1.1.1.1.1.1.1.1.1.1.1.1.1.1.1.1.1.1.1.1.1.1.1.1.1.O O O O + O + O 1.1.",
"1.1.1.1.. O . + + 1.1.1.1.1.1.1.1.1.1.1.1.1.1.1.1.1.1.1.1.1.1.1.1.1.1.1.1.1.1.1.1.1.1.1.1.1.1.1.1.1.1.1.1.1.1.. . O + + 1.1.1.1."
};
